<svg width="14" height="14" viewBox="0 0 14 14" fill="none" xmlns="http://www.w3.org/2000/svg">
<path d="M5.25 1.16667C5.57217 1.16667 5.83333 1.42784 5.83333 1.75V2.33333H8.16667V1.75C8.16667 1.42784 8.42783 1.16667 8.75 1.16667C9.07217 1.16667 9.33333 1.42784 9.33333 1.75V2.33333H11.0833C11.7277 2.33333 12.25 2.85567 12.25 3.5V11.0833C12.25 11.7277 11.7277 12.25 11.0833 12.25H2.91667C2.27233 12.25 1.75 11.7277 1.75 11.0833V3.5C1.75 2.85567 2.27233 2.33333 2.91667 2.33333H4.66667V1.75C4.66667 1.42784 4.92783 1.16667 5.25 1.16667ZM4.66667 3.5H2.91667V5.25H11.0833V3.5H9.33333V4.08333C9.33333 4.4055 9.07217 4.66667 8.75 4.66667C8.42783 4.66667 8.16667 4.4055 8.16667 4.08333V3.5H5.83333V4.08333C5.83333 4.4055 5.57217 4.66667 5.25 4.66667C4.92783 4.66667 4.66667 4.4055 4.66667 4.08333V3.5ZM11.0833 6.41667H2.91667V11.0833H11.0833V6.41667Z" fill="#5F5F5F"/>
</svg>
