<svg width="19" height="18" viewBox="0 0 19 18" fill="none" xmlns="http://www.w3.org/2000/svg">
<path fill-rule="evenodd" clip-rule="evenodd" d="M6.116 2.46107L8.37495 4.85799C8.65488 5.15523 8.65508 5.62097 8.37539 5.91845L7.28341 7.07987C7.96907 9.1761 9.50244 10.8531 11.4458 11.6461L11.6634 11.7305L12.6985 10.6296C12.9892 10.3204 13.4739 10.307 13.781 10.5998L16.0399 12.9967C16.3199 13.2939 16.3201 13.7597 16.0404 14.0571L15.4786 14.6546C14.4527 15.7458 12.8902 16.0533 11.5179 15.4342C9.57815 14.559 8.01291 13.4892 6.82223 12.225C5.63155 10.9607 4.6236 9.29824 3.7984 7.23757C3.23797 5.83809 3.48105 4.25164 4.40909 3.16153L4.52866 3.02791L5.0335 2.49096C5.32423 2.18174 5.80888 2.16836 6.116 2.46107Z" stroke="white" stroke-width="1.5" stroke-linecap="round" stroke-linejoin="round"/>
</svg>
