<svg width="12" height="9" viewBox="0 0 12 9" fill="none" xmlns="http://www.w3.org/2000/svg">
<path fill-rule="evenodd" clip-rule="evenodd" d="M0.00880003 2.65575C2.98023e-08 3.00053 0 3.39197 0 3.83845V5.11793C0 6.92737 0 7.8321 0.585787 8.39424C1.17157 8.95638 2.11438 8.95638 4 8.95638H8C9.8856 8.95638 10.8284 8.95638 11.4142 8.39424C12 7.8321 12 6.92737 12 5.11793V3.83845C12 3.39197 12 3.00053 11.9912 2.65575L6.64753 5.50459C6.2448 5.71922 5.7552 5.71922 5.35247 5.50459L0.00880003 2.65575ZM0.16198 1.29849C0.217227 1.3118 0.2716 1.33218 0.32376 1.35999L6 4.38607L11.6763 1.35999C11.7284 1.33218 11.7828 1.3118 11.838 1.29849C11.7514 0.995559 11.6184 0.758036 11.4142 0.562128C10.8284 1.52526e-07 9.8856 0 8 0H4C2.11438 0 1.17157 1.52526e-07 0.585787 0.562128C0.381633 0.758036 0.248627 0.995559 0.16198 1.29849Z" fill="white"/>
</svg>
