<svg width="150" height="39" viewBox="0 0 150 39" fill="none" xmlns="http://www.w3.org/2000/svg">
<path d="M57.2226 22.723H57.4206C58.3102 22.6941 58.755 22.0631 58.755 20.8301V14.1577H62.2583V20.8301C62.2583 24.0774 60.6458 25.7903 57.4206 25.9688H57.2226C53.9975 25.7903 52.3849 24.0774 52.3849 20.8301V14.1577H55.8882V20.8301C55.8882 22.0615 56.333 22.6925 57.2226 22.723ZM63.9086 25.6167V13.3186C63.9086 12.3673 64.2774 11.4549 64.9342 10.7814C65.5909 10.1078 66.4819 9.72814 67.412 9.72559V18.5031H67.4544L71.078 14.1626H75.1848L71.1322 19.0842L75.8944 25.6239H71.5282L67.412 20.003V25.6239L63.9086 25.6167ZM82.8021 17.1382C82.5892 17.0039 82.3449 16.9307 82.0948 16.926H81.8991C81.008 16.9646 80.5624 17.5996 80.5624 18.831V25.6239H77.0544V18.8383C77.0544 15.5748 78.6677 13.8611 81.8944 13.6972H82.0901C82.327 13.7052 82.5631 13.7277 82.7974 13.7647L82.8021 17.1382ZM92.0979 17.6205C91.7946 17.3558 91.4461 17.1506 91.07 17.0152C90.6751 16.8789 90.2609 16.8105 89.8441 16.8127C89.0892 16.7934 88.3573 17.0794 87.8072 17.6084C87.536 17.8552 87.3201 18.159 87.1745 18.4991C87.0288 18.8391 86.9567 19.2074 86.9632 19.5786C86.9548 20.1492 87.0792 20.7138 87.3262 21.2255C87.5555 21.7053 87.9169 22.1059 88.3659 22.3782C88.8281 22.6745 89.3648 22.8262 89.9101 22.8147C90.724 22.8324 91.5139 22.5323 92.1191 21.9755L94.0358 24.4616C93.7044 24.7959 93.3151 25.0641 92.8877 25.2526C92.3889 25.4818 91.8671 25.6548 91.3317 25.7686C90.8465 25.8752 90.3521 25.9318 89.8559 25.9374C88.6855 25.9622 87.5283 25.6808 86.494 25.12C85.5725 24.6152 84.8011 23.8654 84.2614 22.9497C83.7498 22.0648 83.481 21.0551 83.4834 20.0271C83.4716 19.1451 83.6319 18.2695 83.9549 17.4517C84.2576 16.6944 84.7085 16.0083 85.2799 15.4358C85.8634 14.8717 86.5522 14.4337 87.305 14.1481C88.1208 13.8371 88.9854 13.6819 89.8559 13.6899C90.596 13.6891 91.3314 13.8096 92.0343 14.0468C92.7179 14.2781 93.3563 14.6307 93.9203 15.0885L92.0979 17.6205ZM97.8386 25.1851C96.8773 24.6747 96.0642 23.9146 95.481 22.981C94.9729 22.1513 94.673 21.206 94.608 20.2292C94.543 19.2524 94.715 18.2743 95.1085 17.3818C95.4467 16.6379 95.9278 15.9711 96.5231 15.4213C97.1278 14.8628 97.83 14.426 98.593 14.1336C100.157 13.5387 101.878 13.5387 103.442 14.1336C104.207 14.4175 104.911 14.8517 105.512 15.4117C106.109 15.9643 106.59 16.6344 106.927 17.3818C107.263 18.1499 107.436 18.9819 107.436 19.8233C107.436 20.6647 107.263 21.4967 106.927 22.2649C106.59 23.0153 106.109 23.6886 105.512 24.2446C104.908 24.8037 104.206 25.2406 103.442 25.5323C102.539 25.8888 101.57 26.0423 100.604 25.9824C99.6367 25.9225 98.6937 25.6506 97.8386 25.1851ZM98.9561 21.8839C99.503 22.4354 100.24 22.7445 101.008 22.7445C101.776 22.7445 102.514 22.4354 103.061 21.8839C103.34 21.6224 103.562 21.3036 103.714 20.9484C103.865 20.5932 103.941 20.2095 103.938 19.8221C103.94 19.3101 103.799 18.8081 103.532 18.3753C103.263 17.937 102.89 17.5754 102.448 17.3239C102.01 17.0664 101.513 16.9309 101.008 16.9309C100.503 16.9309 100.007 17.0664 99.569 17.3239C99.1268 17.5754 98.7538 17.937 98.4845 18.3753C98.2172 18.8081 98.0765 19.3101 98.079 19.8221C98.0751 20.2091 98.1506 20.5926 98.3009 20.9478C98.4512 21.303 98.6728 21.6219 98.9513 21.8839H98.9561ZM118.644 18.5802V25.6336H115.131V18.5802C115.073 17.5273 114.631 16.9863 113.806 16.9574H113.608C112.72 16.9863 112.275 17.6165 112.274 18.8479V25.6336H108.766V18.8479C108.766 15.6022 110.378 13.8893 113.604 13.7092H113.802C115.087 13.7848 116.116 14.0983 116.888 14.6497C117.656 14.0975 118.679 13.784 119.964 13.7092H120.162C123.387 13.8877 125 15.6006 125 18.8479V25.6336H121.497V18.8479C121.497 17.6181 121.052 16.9879 120.162 16.9574H119.964C119.139 16.9863 118.697 17.5273 118.639 18.5802H118.644Z" fill="#60269E"/>
<path d="M106.392 5.11242C106.774 5.27322 107.099 5.54983 107.322 5.90505C107.546 6.26028 107.658 6.67709 107.644 7.09942C107.657 7.52094 107.545 7.93668 107.321 8.29095C107.097 8.64522 106.773 8.92108 106.392 9.08159C105.944 9.27233 105.462 9.36515 104.977 9.35407H104.133V10.825H102.162V4.83994H104.977C105.462 4.82771 105.944 4.92057 106.392 5.11242ZM105.449 7.61063C105.517 7.54484 105.57 7.46453 105.605 7.37537C105.64 7.28621 105.655 7.19036 105.649 7.09459C105.655 6.99879 105.64 6.90284 105.605 6.81363C105.571 6.72441 105.517 6.64414 105.449 6.57855C105.278 6.44288 105.064 6.37675 104.848 6.39288H104.129V7.7939H104.848C105.066 7.81254 105.283 7.74718 105.456 7.61063H105.449Z" fill="#FFBF08"/>
<path d="M108.287 4.83984H110.258V9.25512H112.899V10.8201H108.287V4.83984Z" fill="#FFBF08"/>
<path d="M114.106 10.2124C113.603 9.7181 113.354 9.02121 113.354 8.12899V4.83984H115.324V8.06388C115.299 8.40302 115.382 8.74147 115.56 9.02844C115.645 9.12257 115.748 9.19772 115.862 9.24912C115.976 9.30052 116.1 9.32707 116.225 9.32707C116.35 9.32707 116.474 9.30052 116.588 9.24912C116.703 9.19772 116.805 9.12257 116.89 9.02844C117.069 8.74197 117.152 8.40313 117.126 8.06388V4.83984H119.056V8.12899C119.056 9.02121 118.807 9.7181 118.304 10.2124C117.802 10.7068 117.093 10.9576 116.197 10.9576C115.301 10.9576 114.601 10.7164 114.106 10.2124Z" fill="#FFBF08"/>
<path d="M120.707 10.7887C120.308 10.7026 119.926 10.5512 119.575 10.3402L120.209 8.87162C120.506 9.04302 120.823 9.17663 121.152 9.2695C121.476 9.36563 121.81 9.41593 122.147 9.419C122.345 9.42978 122.544 9.40196 122.732 9.33702C122.781 9.31982 122.825 9.28751 122.856 9.2444C122.887 9.2013 122.905 9.14947 122.906 9.09588C122.906 8.97048 122.831 8.87644 122.67 8.81374C122.424 8.7254 122.171 8.65687 121.914 8.60877C121.533 8.53373 121.158 8.43222 120.791 8.30494C120.485 8.19139 120.213 7.99963 119.999 7.74791C119.764 7.46062 119.644 7.09249 119.665 6.71824C119.662 6.35222 119.77 5.99426 119.973 5.69339C120.206 5.36496 120.527 5.11344 120.898 4.96997C121.372 4.78123 121.879 4.69106 122.388 4.70472C122.784 4.70411 123.179 4.74859 123.566 4.83735C123.924 4.9135 124.269 5.04438 124.589 5.22558L124.007 6.68448C123.506 6.4078 122.948 6.2558 122.378 6.24078C121.871 6.24078 121.617 6.36617 121.617 6.61455C121.617 6.73512 121.692 6.82434 121.852 6.88462C122.095 6.96857 122.343 7.03306 122.595 7.07754C122.978 7.14578 123.356 7.24414 123.724 7.37173C124.03 7.4824 124.303 7.66882 124.521 7.91429C124.76 8.19814 124.881 8.56547 124.861 8.93914C124.864 9.3048 124.755 9.6623 124.549 9.96157C124.315 10.2873 123.996 10.5382 123.628 10.685C123.149 10.8795 122.636 10.9722 122.121 10.9575C121.645 10.9575 121.17 10.9008 120.707 10.7887Z" fill="#FFBF08"/>
<path d="M55.7136 32.6986V33.6872H55.4024V32.9831H52.7384V33.6872H52.4319V32.6986H52.5851C52.7855 32.6986 52.9246 32.5225 53.0048 32.2163C53.0978 31.7765 53.146 31.328 53.1486 30.878L53.1839 29.8604H55.2492V32.7082L55.7136 32.6986ZM53.3348 32.0788C53.3139 32.3138 53.212 32.5335 53.0472 32.6986H54.9333V30.1377H53.4692L53.4433 30.8997C53.4348 31.2949 53.3986 31.6889 53.3348 32.0788Z" fill="#60269E"/>
<path d="M58.2059 32.8026C57.9656 32.6712 57.7657 32.4742 57.6283 32.2335C57.4922 31.9844 57.4208 31.7038 57.4208 31.4185C57.4208 31.1331 57.4922 30.8525 57.6283 30.6034C57.7663 30.3626 57.966 30.165 58.2059 30.0319C58.4605 29.8956 58.7436 29.8245 59.031 29.8245C59.3184 29.8245 59.6015 29.8956 59.8562 30.0319C60.095 30.1657 60.2938 30.3632 60.4314 30.6034C60.569 30.8529 60.6413 31.1345 60.6413 31.4209C60.6413 31.7073 60.569 31.9889 60.4314 32.2383C60.293 32.4773 60.0943 32.6739 59.8562 32.8074C59.602 32.9453 59.3187 33.0174 59.031 33.0174C58.7433 33.0174 58.46 32.9453 58.2059 32.8074V32.8026ZM59.6864 32.547C59.8834 32.4406 60.0469 32.2792 60.1579 32.0816C60.2677 31.8782 60.3253 31.6496 60.3253 31.4173C60.3253 31.1849 60.2677 30.9563 60.1579 30.7529C60.046 30.556 59.8828 30.3949 59.6864 30.2875C59.4856 30.1754 59.2598 30.1181 59.031 30.1211C58.8007 30.118 58.5734 30.1753 58.3709 30.2875C58.1748 30.3952 58.0116 30.5563 57.8994 30.7529C57.7881 30.9558 57.7296 31.1846 57.7296 31.4173C57.7296 31.6499 57.7881 31.8787 57.8994 32.0816C58.0104 32.2792 58.1739 32.4406 58.3709 32.547C58.5728 32.6611 58.8004 32.7193 59.031 32.7158C59.2602 32.7192 59.4862 32.661 59.6864 32.547Z" fill="#60269E"/>
<path d="M65.9055 29.851V32.9858H65.5943V30.49L64.3896 32.5976H64.2387L63.034 30.49V32.981H62.7228V29.8462H62.9915L64.3212 32.1684L65.6367 29.8462L65.9055 29.851Z" fill="#60269E"/>
<path d="M70.2103 32.1465H68.5034L68.1333 32.9832H67.7961L69.1965 29.8484H69.5172L70.9175 32.9832H70.5757L70.2103 32.1465ZM70.0924 31.8788L69.3568 30.1908L68.6213 31.8788H70.0924Z" fill="#60269E"/>
<path d="M76.5732 29.8511V32.9859H72.8176V29.8511H73.1383V32.6989H74.5386V29.8511H74.8569V32.6989H76.2526V29.8511H76.5732Z" fill="#60269E"/>
<path d="M81.4796 29.8511V32.9859H81.159V31.5391H79.2423V32.9859H78.9193V29.8511H79.2423V31.2473H81.159V29.8511H81.4796Z" fill="#60269E"/>
<path d="M83.8229 29.8511H84.1435V32.9859H83.8229V29.8511Z" fill="#60269E"/>
<path d="M86.4894 29.8508H86.8077V32.4479L88.7691 29.8508H89.0615V32.9856H88.7432V30.3934L86.7817 32.9832H86.4894V29.8508ZM87.2485 29.4698C87.1854 29.4199 87.1348 29.3554 87.1008 29.2817C87.0668 29.2079 87.0503 29.1269 87.0528 29.0454H87.2886C87.2875 29.0997 87.2989 29.1535 87.3218 29.2025C87.3447 29.2515 87.3786 29.2944 87.4206 29.3275C87.5194 29.4016 87.6402 29.4383 87.7625 29.4312C87.8839 29.4373 88.0037 29.4007 88.102 29.3275C88.144 29.2944 88.1779 29.2515 88.2008 29.2025C88.2237 29.1535 88.2351 29.0997 88.234 29.0454H88.4697C88.4722 29.1269 88.4558 29.2079 88.4218 29.2817C88.3878 29.3554 88.3371 29.4199 88.2741 29.4698C88.1195 29.5707 87.9399 29.6243 87.7566 29.6243C87.5732 29.6243 87.3937 29.5707 87.2391 29.4698H87.2485Z" fill="#60269E"/>
<path d="M93.8662 29.8511H94.1868V32.9859H93.8662V29.8511Z" fill="#60269E"/>
<path d="M99.0904 29.8511V32.9859H98.7816V31.5391H96.8649V32.9859H96.5396V29.8511H96.8649V31.2473H98.7816V29.8511H99.0904Z" fill="#60269E"/>
<path d="M103.44 30.138H102.365V32.9835H102.044V30.138H100.969V29.8511H103.44V30.138Z" fill="#60269E"/>
<path d="M107.488 32.6987V32.9832H105.321V29.8484H107.422V30.1353H105.647V31.2494H107.231V31.5315H105.647V32.6963L107.488 32.6987Z" fill="#60269E"/>
<path d="M111.583 30.1379C111.694 30.2342 111.782 30.3555 111.84 30.4923C111.897 30.6291 111.923 30.7777 111.915 30.9265C111.923 31.0744 111.896 31.2221 111.839 31.358C111.781 31.4939 111.694 31.6144 111.583 31.7102C111.32 31.9137 110.995 32.0146 110.666 31.9947H109.843V32.9834H109.518V29.8486H110.666C110.996 29.83 111.321 29.9327 111.583 30.1379ZM111.347 31.5004C111.427 31.4296 111.49 31.341 111.531 31.2415C111.571 31.142 111.589 31.0342 111.583 30.9265C111.59 30.8169 111.572 30.7072 111.531 30.6057C111.49 30.5042 111.427 30.4135 111.347 30.3405C111.146 30.1923 110.9 30.1207 110.652 30.1379H109.838V31.6957H110.652C110.9 31.7162 111.148 31.6471 111.352 31.5004H111.347Z" fill="#60269E"/>
<path d="M116.463 29.8511V32.9859H116.145V31.5391H114.228V32.9859H113.893V29.8511H114.219V31.2473H116.135V29.8511H116.463Z" fill="#60269E"/>
<path d="M120.966 32.6987V32.9832H118.8V29.8484H120.9V30.1353H119.123V31.2494H120.707V31.5315H119.123V32.6963L120.966 32.6987Z" fill="#60269E"/>
<path d="M125 30.138H123.925V32.9835H123.604V30.138H122.529V29.8511H125V30.138Z" fill="#60269E"/>
<path d="M36.3722 24.9487V36.0001H6.00684V14.0419L21.1871 4.24438L25.5675 6.89451V10.7431L21.3357 8.32688L9.8025 16.1471V32.1177H32.5765V24.9487H36.3722Z" fill="#60269E"/>
<path d="M36.2263 3V6.21198C36.2263 7.61898 35.6799 8.96835 34.7072 9.96324C33.7345 10.9581 32.4153 11.5171 31.0397 11.5171H27.9042V7.62989H29.3871C29.787 7.62989 30.1829 7.54928 30.5524 7.39268C30.9218 7.23608 31.2574 7.00656 31.5401 6.71722C31.8227 6.42789 32.0469 6.08442 32.1997 5.70644C32.3525 5.32846 32.431 4.92338 32.4307 4.51436V3H36.2263Z" fill="#FFBF08"/>
<path d="M37.9781 3V6.21198C37.9781 7.61898 38.5246 8.96835 39.4973 9.96324C40.47 10.9581 41.7892 11.5171 43.1648 11.5171H46.305V7.62989H44.8174C44.4175 7.62989 44.0216 7.54928 43.6521 7.39268C43.2827 7.23608 42.9471 7.00656 42.6644 6.71722C42.3818 6.42789 42.1576 6.08442 42.0048 5.70644C41.852 5.32846 41.7735 4.92338 41.7738 4.51436V3H37.9781Z" fill="#FFBF08"/>
<path d="M36.2263 18.6018V21.809H32.4307V20.2994C32.4307 19.4738 32.11 18.6819 31.5392 18.0981C30.9684 17.5143 30.1943 17.1863 29.3871 17.1863H27.9042V13.304H31.0444C32.418 13.3052 33.7349 13.8637 34.7064 14.8569C35.6778 15.8501 36.2245 17.1969 36.2263 18.6018Z" fill="#FFBF08"/>
<path d="M41.7738 21.8089H37.9781V18.6017C37.9781 17.1947 38.5246 15.8453 39.4973 14.8505C40.47 13.8556 41.7892 13.2966 43.1648 13.2966H46.305V17.179H44.8174C44.0102 17.179 43.2361 17.507 42.6653 18.0908C42.0945 18.6746 41.7738 19.4664 41.7738 20.2921V21.8089Z" fill="#FFBF08"/>
<path d="M20.6051 17.9314H17.6864V20.9167H20.6051V17.9314Z" fill="#60269E"/>
<path d="M24.6908 17.9314H21.7721V20.9167H24.6908V17.9314Z" fill="#60269E"/>
<path d="M20.6051 21.9631H17.6864V24.9484H20.6051V21.9631Z" fill="#60269E"/>
<path d="M24.6908 21.9631H21.7721V24.9484H24.6908V21.9631Z" fill="#60269E"/>
<path d="M21.1874 4.24438L0 17.9315V22.8604L21.3359 8.32688L21.1874 4.24438Z" fill="#60269E"/>
</svg>
