<svg width="98" height="26" viewBox="0 0 98 26" fill="none" xmlns="http://www.w3.org/2000/svg">
<g clip-path="url(#clip0_1237_1298)">
<path d="M44.8626 15.1847H45.0178C45.7153 15.1625 46.064 14.6767 46.064 13.7273V8.59014H48.8106V13.7273C48.8106 16.2275 47.5464 17.5463 45.0178 17.6837H44.8626C42.3341 17.5463 41.0698 16.2275 41.0698 13.7273V8.59014H43.8164V13.7273C43.8164 14.6754 44.1652 15.1612 44.8626 15.1847ZM50.1044 17.4127V7.94405C50.1044 7.21166 50.3936 6.50916 50.9084 5.99059C51.4233 5.47202 52.1219 5.1797 52.851 5.17773V11.9357H52.8843L55.7252 8.59386H58.945L55.7677 12.3832L59.5013 17.4182H56.0782L52.851 13.0905V17.4182L50.1044 17.4127ZM64.9169 10.8849C64.75 10.7815 64.5585 10.7251 64.3624 10.7215H64.209C63.5103 10.7512 63.161 11.2401 63.161 12.1882V17.4182H60.4107V12.1938C60.4107 9.6812 61.6756 8.36178 64.2053 8.23554H64.3587C64.5444 8.24169 64.7296 8.25905 64.9132 8.28752L64.9169 10.8849ZM72.2048 11.2562C71.967 11.0524 71.6938 10.8944 71.399 10.7902C71.0894 10.6852 70.7646 10.6325 70.4378 10.6342C69.846 10.6194 69.2722 10.8396 68.8409 11.2469C68.6283 11.4369 68.4591 11.6708 68.3448 11.9326C68.2306 12.1944 68.1741 12.478 68.1792 12.7638C68.1726 13.2031 68.2702 13.6378 68.4638 14.0318C68.6435 14.4012 68.9269 14.7096 69.2789 14.9193C69.6413 15.1474 70.0621 15.2642 70.4896 15.2553C71.1277 15.2689 71.747 15.0379 72.2215 14.6092L73.7242 16.5233C73.4643 16.7807 73.1591 16.9872 72.824 17.1323C72.4329 17.3088 72.0239 17.442 71.6041 17.5296C71.2238 17.6117 70.8361 17.6552 70.4471 17.6596C69.5295 17.6786 68.6223 17.462 67.8114 17.0302C67.0889 16.6416 66.4842 16.0643 66.061 15.3593C65.6599 14.678 65.4492 13.9006 65.4511 13.1091C65.4418 12.43 65.5674 11.7559 65.8207 11.1262C66.058 10.5431 66.4115 10.0149 66.8595 9.57414C67.317 9.13981 67.857 8.80261 68.4472 8.58272C69.0868 8.34331 69.7646 8.22375 70.4471 8.22997C71.0273 8.22935 71.6039 8.32212 72.1549 8.50474C72.6909 8.68278 73.1914 8.95428 73.6336 9.30679L72.2048 11.2562ZM76.7055 17.0803C75.9519 16.6874 75.3144 16.1021 74.8572 15.3834C74.4588 14.7446 74.2237 14.0168 74.1728 13.2647C74.1218 12.5126 74.2566 11.7596 74.5652 11.0724C74.8303 10.4996 75.2074 9.98632 75.6742 9.563C76.1482 9.133 76.6988 8.79665 77.297 8.57158C78.5233 8.11354 79.8727 8.11354 81.099 8.57158C81.6986 8.79013 82.2499 9.1244 82.7218 9.55557C83.1893 9.98106 83.5665 10.497 83.8308 11.0724C84.094 11.6638 84.2301 12.3044 84.2301 12.9522C84.2301 13.6 84.094 14.2406 83.8308 14.832C83.5669 15.4098 83.1897 15.9282 82.7218 16.3563C82.248 16.7867 81.6974 17.1231 81.099 17.3477C80.3904 17.6222 79.6313 17.7404 78.8733 17.6942C78.1152 17.6481 77.3759 17.4387 76.7055 17.0803ZM77.5816 14.5387C78.0105 14.9633 78.5884 15.2013 79.1906 15.2013C79.7928 15.2013 80.3707 14.9633 80.7996 14.5387C81.0186 14.3373 81.193 14.0919 81.3115 13.8184C81.43 13.545 81.4898 13.2495 81.4871 12.9513C81.4891 12.5571 81.3788 12.1706 81.1692 11.8373C80.9582 11.4999 80.6657 11.2215 80.319 11.0278C79.9757 10.8296 79.5866 10.7253 79.1906 10.7253C78.7946 10.7253 78.4055 10.8296 78.0622 11.0278C77.7155 11.2215 77.423 11.4999 77.212 11.8373C77.0024 12.1706 76.8921 12.5571 76.894 12.9513C76.8909 13.2492 76.9502 13.5445 77.068 13.818C77.1858 14.0915 77.3595 14.337 77.5779 14.5387H77.5816ZM93.017 11.9951V17.4256H90.263V11.9951C90.2174 11.1844 89.8711 10.7679 89.2242 10.7456H89.069C88.3728 10.7679 88.024 11.2531 88.0228 12.2012V17.4256H85.2725V12.2012C85.2725 9.70224 86.5368 8.38344 89.0653 8.24482H89.2205C90.2285 8.30299 91.035 8.54435 91.64 8.96889C92.2425 8.54373 93.0447 8.30237 94.052 8.24482H94.2073C96.7358 8.38221 98.0001 9.701 98.0001 12.2012V17.4256H95.2534V12.2012C95.2534 11.2543 94.9047 10.7692 94.2073 10.7456H94.052C93.4051 10.7679 93.0589 11.1844 93.0133 11.9951H93.017Z" fill="white"/>
<path d="M83.4111 1.62663C83.7107 1.75043 83.9653 1.9634 84.1408 2.2369C84.3162 2.51039 84.4041 2.8313 84.3926 3.15646C84.4033 3.481 84.3151 3.80109 84.1397 4.07385C83.9643 4.34661 83.7101 4.559 83.4111 4.68258C83.0601 4.82943 82.6823 4.9009 82.3021 4.89237H81.6404V6.02489H80.0952V1.41684H82.3021C82.6824 1.40742 83.0603 1.47892 83.4111 1.62663ZM82.6718 3.55006C82.7253 3.4994 82.7671 3.43757 82.7943 3.36893C82.8214 3.30028 82.8332 3.22648 82.8289 3.15275C82.8335 3.07898 82.8218 3.00511 82.7946 2.93643C82.7675 2.86774 82.7255 2.80593 82.6718 2.75544C82.5376 2.65098 82.3697 2.60006 82.2005 2.61248H81.6367V3.69116H82.2005C82.3714 3.70551 82.5415 3.65519 82.6773 3.55006H82.6718Z" fill="#FFBF08"/>
<path d="M84.8972 1.41699H86.4424V4.81641H88.5125V6.02133H84.8972V1.41699Z" fill="#FFBF08"/>
<path d="M89.459 5.55347C89.0653 5.17287 88.8694 4.63632 88.8694 3.94938V1.41699H90.4146V3.89925C90.3946 4.16036 90.4595 4.42094 90.5994 4.64189C90.6657 4.71436 90.7463 4.77222 90.836 4.81179C90.9257 4.85137 91.0227 4.8718 91.1206 4.8718C91.2186 4.8718 91.3156 4.85137 91.4053 4.81179C91.495 4.77222 91.5756 4.71436 91.6419 4.64189C91.7827 4.42132 91.8476 4.16044 91.8267 3.89925V1.41699H93.3405V3.94938C93.3405 4.63632 93.1446 5.17287 92.7509 5.55347C92.3572 5.93407 91.8008 6.12716 91.0985 6.12716C90.3961 6.12716 89.8471 5.9415 89.459 5.55347Z" fill="#FFBF08"/>
<path d="M94.6343 5.99678C94.3219 5.93053 94.0223 5.81391 93.7471 5.65146L94.2443 4.52079C94.4774 4.65276 94.7257 4.75563 94.9836 4.82713C95.2371 4.90115 95.4996 4.93988 95.7636 4.94224C95.919 4.95054 96.0745 4.92911 96.222 4.87912C96.2609 4.86588 96.2949 4.841 96.3193 4.80781C96.3438 4.77463 96.3575 4.73472 96.3588 4.69346C96.3588 4.59691 96.2996 4.52451 96.1739 4.47624C95.9805 4.40822 95.7822 4.35546 95.5806 4.31843C95.2824 4.26065 94.9884 4.18249 94.7008 4.0845C94.4608 3.99707 94.247 3.84944 94.0798 3.65562C93.8952 3.43444 93.8014 3.15101 93.8173 2.86286C93.8151 2.58106 93.8997 2.30545 94.0594 2.07381C94.2415 1.82095 94.4934 1.62729 94.784 1.51683C95.156 1.37151 95.5531 1.30209 95.9521 1.31261C96.263 1.31214 96.5729 1.34638 96.8763 1.41472C97.1571 1.47336 97.4275 1.57412 97.6784 1.71363L97.2219 2.83687C96.8288 2.62385 96.3913 2.50682 95.9447 2.49526C95.5473 2.49526 95.3477 2.5918 95.3477 2.78303C95.3477 2.87586 95.4069 2.94455 95.5325 2.99097C95.7225 3.05559 95.9172 3.10525 96.1148 3.13949C96.4152 3.19204 96.7112 3.26776 97.0001 3.366C97.2395 3.45121 97.4542 3.59474 97.6249 3.78373C97.8118 4.00227 97.9072 4.28508 97.891 4.57278C97.8934 4.85431 97.8081 5.12956 97.647 5.35997C97.4636 5.61076 97.213 5.80395 96.9243 5.91695C96.5489 6.06668 96.147 6.13806 95.7433 6.12674C95.3698 6.12673 94.9977 6.08312 94.6343 5.99678Z" fill="#FFBF08"/>
<path d="M43.6796 22.8657V23.6269H43.4356V23.0848H41.347V23.6269H41.1067V22.8657H41.2268C41.3839 22.8657 41.493 22.7302 41.5558 22.4944C41.6288 22.1558 41.6666 21.8105 41.6686 21.464L41.6963 20.6805H43.3154V22.8732L43.6796 22.8657ZM41.8146 22.3886C41.7982 22.5695 41.7183 22.7386 41.5891 22.8657H43.0678V20.8941H41.92L41.8996 21.4807C41.893 21.785 41.8646 22.0884 41.8146 22.3886Z" fill="white"/>
<path d="M45.6333 22.9453C45.445 22.8441 45.2882 22.6924 45.1805 22.5071C45.0738 22.3153 45.0178 22.0993 45.0178 21.8796C45.0178 21.6599 45.0738 21.4439 45.1805 21.2521C45.2887 21.0667 45.4453 20.9145 45.6333 20.8121C45.833 20.7071 46.0549 20.6523 46.2803 20.6523C46.5056 20.6523 46.7275 20.7071 46.9272 20.8121C47.1144 20.915 47.2702 21.0671 47.3782 21.2521C47.486 21.4441 47.5427 21.6609 47.5427 21.8815C47.5427 22.102 47.486 22.3188 47.3782 22.5108C47.2696 22.6948 47.1139 22.8462 46.9272 22.949C46.7279 23.0551 46.5058 23.1106 46.2803 23.1106C46.0547 23.1106 45.8326 23.0551 45.6333 22.949V22.9453ZM46.7941 22.7485C46.9486 22.6665 47.0767 22.5423 47.1638 22.3902C47.2498 22.2335 47.295 22.0576 47.295 21.8787C47.295 21.6998 47.2498 21.5238 47.1638 21.3672C47.076 21.2156 46.948 21.0915 46.7941 21.0089C46.6366 20.9225 46.4596 20.8784 46.2803 20.8808C46.0997 20.8784 45.9215 20.9225 45.7627 21.0089C45.609 21.0918 45.481 21.2158 45.3931 21.3672C45.3058 21.5234 45.26 21.6995 45.26 21.8787C45.26 22.0578 45.3058 22.2339 45.3931 22.3902C45.4801 22.5423 45.6083 22.6665 45.7627 22.7485C45.921 22.8363 46.0994 22.8811 46.2803 22.8784C46.4599 22.8811 46.6371 22.8363 46.7941 22.7485Z" fill="white"/>
<path d="M51.6698 20.6727V23.0862H51.4258V21.1647L50.4813 22.7873H50.363L49.4185 21.1647V23.0825H49.1746V20.6689H49.3853L50.4277 22.4568L51.4591 20.6689L51.6698 20.6727Z" fill="white"/>
<path d="M55.045 22.4402H53.7068L53.4167 23.0845H53.1523L54.2502 20.6709H54.5016L55.5995 23.0845H55.3315L55.045 22.4402ZM54.9526 22.2341L54.3759 20.9345L53.7993 22.2341H54.9526Z" fill="white"/>
<path d="M60.0335 20.6729V23.0864H57.0891V20.6729H57.3405V22.8655H58.4384V20.6729H58.6879V22.8655H59.7821V20.6729H60.0335Z" fill="white"/>
<path d="M63.8798 20.6729V23.0864H63.6285V21.9725H62.1258V23.0864H61.8726V20.6729H62.1258V21.7478H63.6285V20.6729H63.8798Z" fill="white"/>
<path d="M65.7173 20.6729H65.9687V23.0864H65.7173V20.6729Z" fill="white"/>
<path d="M67.8076 20.6728H68.0571V22.6724L69.5949 20.6728H69.8241V23.0864H69.5746V21.0906L68.0368 23.0845H67.8076V20.6728ZM68.4028 20.3795C68.3533 20.3411 68.3136 20.2914 68.287 20.2346C68.2603 20.1778 68.2474 20.1155 68.2494 20.0527H68.4342C68.4333 20.0946 68.4423 20.136 68.4602 20.1737C68.4782 20.2114 68.5047 20.2444 68.5377 20.27C68.6151 20.327 68.7099 20.3552 68.8057 20.3498C68.9009 20.3545 68.9948 20.3263 69.0719 20.27C69.1048 20.2444 69.1314 20.2114 69.1494 20.1737C69.1673 20.136 69.1762 20.0946 69.1754 20.0527H69.3602C69.3622 20.1155 69.3493 20.1778 69.3226 20.2346C69.296 20.2914 69.2563 20.3411 69.2068 20.3795C69.0856 20.4572 68.9449 20.4985 68.8011 20.4985C68.6573 20.4985 68.5166 20.4572 68.3954 20.3795H68.4028Z" fill="white"/>
<path d="M73.5911 20.6729H73.8424V23.0864H73.5911V20.6729Z" fill="white"/>
<path d="M77.6869 20.6729V23.0864H77.4448V21.9725H75.9421V23.0864H75.687V20.6729H75.9421V21.7478H77.4448V20.6729H77.6869Z" fill="white"/>
<path d="M81.097 20.8938H80.2541V23.0846H80.0027V20.8938H79.1599V20.6729H81.097V20.8938Z" fill="white"/>
<path d="M84.2706 22.8654V23.0845H82.572V20.6709H84.2189V20.8918H82.8271V21.7496H84.0692V21.9668H82.8271V22.8635L84.2706 22.8654Z" fill="white"/>
<path d="M87.4812 20.8944C87.5684 20.9685 87.6373 21.0618 87.6825 21.1672C87.7277 21.2725 87.748 21.3869 87.7418 21.5015C87.7474 21.6154 87.7268 21.7291 87.6816 21.8337C87.6364 21.9384 87.5678 22.0311 87.4812 22.1049C87.2751 22.2616 87.0202 22.3393 86.7622 22.3239H86.1171V23.0851H85.8621V20.6716H86.7622C87.0206 20.6573 87.2757 20.7363 87.4812 20.8944ZM87.2964 21.9433C87.3588 21.8888 87.408 21.8206 87.44 21.744C87.4721 21.6674 87.4862 21.5844 87.4812 21.5015C87.4865 21.4171 87.4726 21.3326 87.4406 21.2545C87.4085 21.1763 87.3592 21.1065 87.2964 21.0503C87.1382 20.9362 86.9454 20.8811 86.7511 20.8944H86.1134V22.0937H86.7511C86.946 22.1095 87.1402 22.0563 87.3001 21.9433H87.2964Z" fill="white"/>
<path d="M91.3072 20.6729V23.0864H91.0576V21.9725H89.5549V23.0864H89.2925V20.6729H89.5476V21.7478H91.0502V20.6729H91.3072Z" fill="white"/>
<path d="M94.8375 22.8654V23.0845H93.1389V20.6709H94.7858V20.8918H93.3921V21.7496H94.6342V21.9668H93.3921V22.8635L94.8375 22.8654Z" fill="white"/>
<path d="M98 20.8938H97.1572V23.0846H96.9058V20.8938H96.063V20.6729H98V20.8938Z" fill="white"/>
<path d="M28.5159 16.8987V25.4074H4.70947V8.50132L16.6108 0.958L20.045 2.99839V5.96151L16.7273 4.1012L7.68527 10.1221V22.4183H25.5401V16.8987H28.5159Z" fill="white"/>
<path d="M28.4013 0V2.47298C28.4013 3.55625 27.9729 4.59516 27.2103 5.36115C26.4477 6.12714 25.4134 6.55747 24.335 6.55747H21.8767V3.56465H23.0393C23.3528 3.56465 23.6633 3.50259 23.9529 3.38202C24.2425 3.26145 24.5056 3.08474 24.7272 2.86197C24.9488 2.63921 25.1246 2.37476 25.2444 2.08374C25.3642 1.79273 25.4257 1.48085 25.4255 1.16594V0H28.4013Z" fill="#FFBF08"/>
<path d="M29.7747 0V2.47298C29.7747 3.55625 30.2031 4.59516 30.9657 5.36115C31.7282 6.12714 32.7625 6.55747 33.841 6.55747H36.3029V3.56465H35.1366C34.8231 3.56465 34.5127 3.50259 34.2231 3.38202C33.9334 3.26145 33.6703 3.08474 33.4487 2.86197C33.2271 2.63921 33.0514 2.37476 32.9316 2.08374C32.8118 1.79273 32.7502 1.48085 32.7505 1.16594V0H29.7747Z" fill="#FFBF08"/>
<path d="M28.4013 12.0125V14.4818H25.4255V13.3196C25.4255 12.6839 25.1741 12.0742 24.7266 11.6247C24.2791 11.1752 23.6722 10.9227 23.0393 10.9227H21.8767V7.93359H24.3387C25.4155 7.93458 26.448 8.36457 27.2096 9.12926C27.9713 9.89394 28.3998 10.9309 28.4013 12.0125Z" fill="#FFBF08"/>
<path d="M32.7505 14.4814H29.7747V12.0121C29.7747 10.9289 30.2031 9.88995 30.9657 9.12396C31.7282 8.35796 32.7625 7.92764 33.841 7.92764H36.3029V10.9167H35.1366C34.5038 10.9167 33.8969 11.1693 33.4494 11.6188C33.0019 12.0683 32.7505 12.6779 32.7505 13.3136V14.4814Z" fill="#FFBF08"/>
<path d="M16.1544 11.496H13.8662V13.7945H16.1544V11.496Z" fill="white"/>
<path d="M19.3576 11.496H17.0693V13.7945H19.3576V11.496Z" fill="white"/>
<path d="M16.1544 14.6006H13.8662V16.899H16.1544V14.6006Z" fill="white"/>
<path d="M19.3576 14.6006H17.0693V16.899H19.3576V14.6006Z" fill="white"/>
<path d="M16.6109 0.958L0 11.496V15.2909L16.7273 4.10121L16.6109 0.958Z" fill="white"/>
</g>
<defs>
<clipPath id="clip0_1237_1298">
<rect width="98" height="25.4074" fill="white"/>
</clipPath>
</defs>
</svg>
