<svg width="16" height="14" viewBox="0 0 16 14" fill="none" xmlns="http://www.w3.org/2000/svg">
<path fill-rule="evenodd" clip-rule="evenodd" d="M1.33719 5.85219C5.41847 4.07404 8.13997 2.90178 9.50168 2.3354C13.3896 0.718266 14.1975 0.437353 14.7241 0.428077C14.8399 0.426037 15.0988 0.454739 15.2666 0.590846C15.4082 0.705772 15.4472 0.86102 15.4658 0.969983C15.4845 1.07895 15.5077 1.32716 15.4892 1.52112C15.2785 3.73484 14.3669 9.10698 13.9031 11.5864C13.7069 12.6355 13.3204 12.9873 12.9463 13.0217C12.1333 13.0965 11.516 12.4844 10.7285 11.9683C9.49635 11.1605 8.80024 10.6577 7.6042 9.86957C6.22196 8.95869 7.11801 8.45806 7.90574 7.63989C8.11189 7.42577 11.694 4.16756 11.7633 3.87198C11.772 3.83502 11.7801 3.69723 11.6982 3.62447C11.6163 3.55171 11.4955 3.57659 11.4083 3.59638C11.2848 3.62442 9.31633 4.92548 5.50306 7.49954C4.94433 7.88321 4.43825 8.07015 3.98482 8.06035C3.48494 8.04955 2.52339 7.77771 1.80857 7.54536C0.931822 7.26036 0.234998 7.10968 0.295675 6.62567C0.32728 6.37356 0.674451 6.11574 1.33719 5.85219Z" fill="#FC7536"/>
</svg>
